<?xml version="1.0" standalone="no"?>
<!DOCTYPE svg PUBLIC "-//W3C//DTD SVG 20010904//EN"
 "http://www.w3.org/TR/2001/REC-SVG-20010904/DTD/svg10.dtd">
<svg version="1.0" xmlns="http://www.w3.org/2000/svg"
 width="26pt" height="28pt" viewBox="0 0 260.000000 280.000000"
 preserveAspectRatio="xMidYMid meet">

<g transform="translate(0.000000,280.000000) scale(0.100000,-0.100000)"
fill="#ffff" stroke="none">
<path d="M1079 2166 c-277 -77 -410 -394 -272 -648 31 -58 123 -147 181 -177
132 -67 296 -65 421 5 l45 25 166 -166 c146 -145 169 -165 198 -165 19 0 40 8
52 20 12 12 20 33 20 52 0 29 -20 52 -165 198 l-166 166 25 45 c140 250 2 571
-278 645 -62 17 -165 17 -227 0z m264 -119 c65 -32 140 -109 170 -175 31 -67
31 -206 -1 -275 -30 -66 -104 -142 -171 -174 -48 -24 -68 -27 -146 -27 -78 0
-98 3 -146 27 -67 32 -142 108 -172 175 -31 67 -31 207 0 274 25 54 90 128
140 159 92 57 228 63 326 16z"/>
<path d="M503 100 c0 -25 2 -35 4 -22 2 12 2 32 0 45 -2 12 -4 2 -4 -23z"/>
<path d="M1073 100 c-1 -25 1 -37 4 -27 5 18 5 18 26 0 22 -18 22 -18 4 3 -9
11 -14 24 -10 29 5 4 3 5 -4 1 -7 -4 -13 2 -16 16 -2 13 -4 3 -4 -22z"/>
<path d="M1563 133 c9 -2 23 -2 30 0 6 3 -1 5 -18 5 -16 0 -22 -2 -12 -5z"/>
<path d="M1638 133 c24 -5 29 -18 10 -26 -10 -4 -10 -6 0 -6 20 -2 14 -29 -8
-34 -17 -4 -16 -4 2 -3 19 1 23 7 23 36 0 30 -3 35 -25 37 -22 1 -22 1 -2 -4z"/>
<path d="M1697 133 c-2 -4 -4 -21 -3 -38 1 -23 6 -30 21 -30 16 0 20 7 20 35
0 24 -5 36 -17 38 -9 2 -18 -1 -21 -5z m33 -13 c0 -5 -7 -10 -15 -10 -8 0 -15
5 -15 10 0 6 7 10 15 10 8 0 15 -4 15 -10z m0 -35 c0 -8 -7 -15 -15 -15 -8 0
-15 7 -15 15 0 8 7 15 15 15 8 0 15 -7 15 -15z"/>
<path d="M1773 133 c9 -2 23 -2 30 0 6 3 -1 5 -18 5 -16 0 -22 -2 -12 -5z"/>
<path d="M1840 126 c-18 -23 -9 -61 15 -61 22 0 29 37 7 41 -7 1 -8 0 -2 -3
16 -7 12 -33 -5 -33 -21 0 -19 47 3 59 9 6 12 11 6 11 -6 0 -17 -7 -24 -14z"/>
<path d="M1918 133 c24 -5 29 -18 10 -26 -10 -4 -10 -6 0 -6 20 -2 14 -29 -8
-34 -17 -4 -16 -4 2 -3 19 1 23 7 23 36 0 30 -3 35 -25 37 -22 1 -22 1 -2 -4z"/>
<path d="M1970 120 c0 -13 6 -20 18 -19 10 0 12 3 5 6 -18 7 -16 21 5 26 13 4
11 5 -5 6 -17 1 -23 -5 -23 -19z"/>
<path d="M2053 133 c9 -2 23 -2 30 0 6 3 -1 5 -18 5 -16 0 -22 -2 -12 -5z"/>
<path d="M2114 126 c-7 -18 3 -36 19 -35 9 0 9 2 0 6 -18 7 -16 33 2 33 21 0
19 -47 -2 -59 -10 -6 -13 -11 -7 -11 19 0 36 27 32 52 -4 26 -35 37 -44 14z"/>
<path d="M642 98 c2 -17 9 -33 16 -34 7 -1 8 0 2 3 -14 7 -13 40 2 45 7 3 5 7
-6 11 -15 6 -17 2 -14 -25z"/>
<path d="M682 98 c2 -17 9 -33 16 -34 7 -1 8 0 2 3 -14 7 -13 40 2 45 7 3 5 7
-6 11 -15 6 -17 2 -14 -25z"/>
<path d="M902 98 c2 -17 9 -33 16 -34 7 -1 8 0 2 3 -14 7 -13 40 2 45 7 3 5 7
-6 11 -15 6 -17 2 -14 -25z"/>
<path d="M445 109 c-4 -6 -4 -13 -1 -16 3 -4 6 -1 6 5 0 6 8 13 18 15 15 4 15
5 0 6 -9 0 -20 -4 -23 -10z"/>
<path d="M526 113 c7 -4 14 -19 17 -33 4 -22 5 -21 4 4 -1 17 -9 31 -17 33
-10 3 -11 2 -4 -4z"/>
<path d="M570 96 c0 -14 4 -27 8 -30 5 -3 6 8 4 25 -5 35 -12 38 -12 5z"/>
<path d="M612 90 c0 -19 2 -27 5 -17 2 9 2 25 0 35 -3 9 -5 1 -5 -18z"/>
<path d="M724 106 c-9 -23 3 -46 23 -45 17 1 17 2 1 6 -25 6 -22 23 3 23 12 0
19 5 17 13 -7 18 -37 21 -44 3z m33 -2 c-3 -3 -12 -4 -19 -1 -8 3 -5 6 6 6 11
1 17 -2 13 -5z"/>
<path d="M792 90 c0 -19 2 -27 5 -17 2 9 2 25 0 35 -3 9 -5 1 -5 -18z"/>
<path d="M845 109 c-4 -6 -4 -13 -1 -16 3 -4 6 -1 6 5 0 6 8 13 18 15 15 4 15
5 0 6 -9 0 -20 -4 -23 -10z"/>
<path d="M944 106 c-9 -24 4 -48 23 -44 12 2 18 12 18 28 0 29 -32 41 -41 16z
m36 -16 c0 -11 -7 -20 -15 -20 -8 0 -15 9 -15 20 0 11 7 20 15 20 8 0 15 -9
15 -20z"/>
<path d="M1014 105 c-9 -23 3 -45 23 -44 17 1 17 2 1 6 -10 2 -18 13 -18 23 0
10 8 21 18 23 16 4 16 5 -1 6 -10 0 -20 -6 -23 -14z"/>
<path d="M1174 105 c-9 -23 3 -45 23 -44 17 1 17 2 1 6 -10 2 -18 13 -18 23 0
10 8 21 18 23 16 4 16 5 -1 6 -10 0 -20 -6 -23 -14z"/>
<path d="M1234 106 c-9 -24 4 -48 23 -44 12 2 18 12 18 28 0 29 -32 41 -41 16z
m36 -16 c0 -11 -7 -20 -15 -20 -8 0 -15 9 -15 20 0 11 7 20 15 20 8 0 15 -9
15 -20z"/>
<path d="M1302 90 c0 -19 2 -27 5 -17 2 9 2 25 0 35 -3 9 -5 1 -5 -18z"/>
<path d="M1326 113 c7 -4 14 -19 17 -33 4 -22 5 -21 4 4 -1 17 -9 31 -17 33
-10 3 -11 2 -4 -4z"/>
<path d="M1460 95 c0 -9 5 -15 11 -13 6 2 11 8 11 13 0 5 -5 11 -11 13 -6 2
-11 -4 -11 -13z"/>
<path d="M1382 80 c0 -14 2 -19 5 -12 2 6 2 18 0 25 -3 6 -5 1 -5 -13z"/>
<path d="M2010 87 c0 -8 -10 -18 -22 -20 l-23 -4 23 -2 c22 -1 41 23 28 36 -3
4 -6 -1 -6 -10z"/>
<path d="M470 82 c0 -6 -8 -13 -17 -15 -16 -4 -16 -5 -1 -6 18 -1 34 16 24 26
-3 4 -6 1 -6 -5z"/>
<path d="M870 82 c0 -6 -8 -13 -17 -15 -16 -4 -16 -5 -1 -6 18 -1 34 16 24 26
-3 4 -6 1 -6 -5z"/>
<path d="M1566 73 c-6 -14 -5 -15 5 -6 7 7 10 15 7 18 -3 3 -9 -2 -12 -12z"/>
<path d="M1776 73 c-6 -14 -5 -15 5 -6 7 7 10 15 7 18 -3 3 -9 -2 -12 -12z"/>
<path d="M2056 73 c-6 -14 -5 -15 5 -6 7 7 10 15 7 18 -3 3 -9 -2 -12 -12z"/>
</g>
</svg>
