<?xml version="1.0" standalone="no"?>
<!DOCTYPE svg PUBLIC "-//W3C//DTD SVG 20010904//EN"
 "http://www.w3.org/TR/2001/REC-SVG-20010904/DTD/svg10.dtd">
<svg version="1.0" xmlns="http://www.w3.org/2000/svg"
 width="25pt" height="25pt" viewBox="0 0 200.000000 200.000000"
 preserveAspectRatio="xMidYMid meet">

<g transform="translate(0.000000,200.000000) scale(0.100000,-0.100000)"
fill="#ED4E08" stroke="none">
<path d="M0 1000 l0 -1000 1000 0 1000 0 0 1000 0 1000 -1000 0 -1000 0 0
-1000z m1215 645 c27 -26 32 -63 14 -96 -6 -12 -45 -60 -87 -108 -42 -48 -122
-140 -176 -204 l-100 -117 -109 0 c-62 0 -107 4 -105 9 2 8 198 237 398 467
25 28 54 56 65 62 35 18 74 13 100 -13z m104 -570 c33 -16 45 -52 31 -89 -9
-24 -175 -220 -443 -523 -109 -123 -121 -133 -153 -133 -45 0 -84 39 -84 85 0
35 -3 31 267 340 l140 160 -231 5 c-127 3 -239 9 -248 13 -21 11 -38 59 -31
89 3 13 15 33 26 46 20 22 21 22 359 22 278 0 344 -3 367 -15z m231 -2 c34
-23 40 -33 40 -71 0 -53 -37 -82 -105 -82 -69 0 -105 29 -105 84 0 70 105 113
170 69z"/>
</g>
</svg>
