<?xml version="1.0" standalone="no"?>
<!DOCTYPE svg PUBLIC "-//W3C//DTD SVG 20010904//EN"
 "http://www.w3.org/TR/2001/REC-SVG-20010904/DTD/svg10.dtd">
<svg version="1.0" xmlns="http://www.w3.org/2000/svg"
 width="900.000000pt" height="820.000000pt" viewBox="0 0 900.000000 820.000000"
 preserveAspectRatio="xMidYMid meet">

<g transform="translate(0.000000,820.000000) scale(0.100000,-0.100000)"
fill="#000000" stroke="none">
<path d="M95 8176 c-122 -54 -125 -252 -5 -313 l44 -23 573 0 573 0 13 -22 c8
-13 36 -120 62 -238 26 -118 65 -289 86 -380 21 -91 70 -304 109 -475 39 -170
93 -404 120 -520 27 -115 76 -327 110 -470 33 -143 83 -357 110 -475 64 -274
157 -676 220 -945 27 -115 74 -316 104 -445 30 -129 87 -372 126 -539 39 -168
70 -313 68 -323 -2 -13 -28 -29 -78 -51 -213 -93 -370 -268 -440 -492 -31
-100 -38 -258 -15 -361 32 -148 96 -270 198 -381 32 -33 57 -65 56 -69 0 -5
-31 -35 -68 -66 -284 -239 -376 -636 -230 -990 101 -245 348 -446 619 -503
205 -43 462 8 637 126 182 123 307 300 364 514 57 217 8 492 -122 681 -15 23
-29 47 -31 54 -2 10 374 13 1965 14 1082 1 1970 0 1972 -2 2 -2 -13 -29 -32
-60 -182 -284 -200 -581 -53 -872 146 -290 394 -450 723 -467 287 -15 543 105
719 336 193 256 228 609 88 896 -104 213 -282 366 -520 448 l-95 32 -2775 5
-2775 5 -78 37 c-138 66 -234 192 -260 342 -32 187 73 385 251 473 l76 38
2715 5 c1494 3 2717 6 2718 8 28 29 80 231 912 3572 78 311 141 578 141 592 0
17 -8 31 -19 38 -14 7 -1137 10 -3554 10 -3128 0 -3536 2 -3547 15 -7 8 -34
113 -61 232 -27 120 -70 308 -94 418 -125 556 -126 559 -202 591 -47 20 -1373
20 -1418 0z m8503 -1581 c7 -7 -878 -3548 -890 -3562 -8 -11 -493 -13 -2492
-11 l-2481 3 -12 40 c-6 22 -37 150 -68 285 -61 266 -140 606 -210 905 -79
340 -152 654 -220 945 -36 157 -88 380 -115 495 -78 331 -147 630 -175 755
-14 63 -28 123 -31 132 -5 17 87 18 1793 20 2151 3 4895 -1 4901 -7z m-5843
-5130 c172 -45 318 -182 376 -352 33 -96 33 -250 0 -346 -111 -324 -492 -469
-786 -298 -150 87 -255 250 -271 419 -24 257 151 510 397 576 72 19 211 20
284 1z m5294 0 c172 -41 310 -170 373 -349 23 -67 28 -98 28 -177 0 -154 -48
-275 -150 -380 -168 -171 -408 -212 -627 -108 -87 41 -206 158 -246 241 -53
111 -70 252 -46 370 37 179 205 353 390 402 71 19 198 19 278 1z"/>
</g>
</svg>
